<svg id="Layer_1" data-name="Layer 1" xmlns="http://www.w3.org/2000/svg" viewBox="0 0 29.4 53.71"><defs><style>.cls-1{fill:#3a4da1;stroke:#f9f9fa;stroke-miterlimit:10;}.cls-2{fill:#964499;}.cls-3{fill:#fff;}</style></defs><title>pin-campus</title><path class="cls-1" d="M283.84,185.14h0v-8.71c0-.85-.34-1.22-1.12-1.22h-7.83V160.68c0-.82-.34-1.18-1.08-1.18h-17.3c-.74,0-1.07.36-1.08,1.17,0,.11,0,.21,0,.31v10.35q0,9.4,0,18.8a2.88,2.88,0,0,0,0,.33c0,.09,0,.18,0,.27a19.51,19.51,0,0,0,2.91,7.75A70.4,70.4,0,0,0,269,211.85c.46.47.76.5,1.21,0,1.78-2,3.64-4,5.38-6a43.34,43.34,0,0,0,6.64-10,12.93,12.93,0,0,0,1.55-5.6c0-.05,0-.08,0-.13v-.71h0Z" transform="translate(-254.93 -159)"/><path class="cls-2" d="M257.29,189.31H273V188H257.29Z" transform="translate(-254.93 -159)"/><path class="cls-2" d="M279.26,180.9h2.44v-2.62h-2.44Z" transform="translate(-254.93 -159)"/><path class="cls-2" d="M279.27,182v2.65h2.43V182Z" transform="translate(-254.93 -159)"/><path class="cls-2" d="M279.26,188.3h2.44v-2.64h-2.44Z" transform="translate(-254.93 -159)"/><path class="cls-2" d="M275.62,184.64c.77,0,1.5,0,2.23,0a.3.3,0,0,0,.21-.2c0-.82,0-1.63,0-2.47h-2.45Z" transform="translate(-254.93 -159)"/><path class="cls-2" d="M275.62,180.94c.78,0,1.52,0,2.26,0,.06,0,.18-.1.18-.16,0-.83,0-1.66,0-2.5h-2.45Z" transform="translate(-254.93 -159)"/><path class="cls-2" d="M278,188.31v-2.65h-2.41v2.65Z" transform="translate(-254.93 -159)"/><path class="cls-3" d="M257.29,189.31V188H273v1.27Z" transform="translate(-254.93 -159)"/><path class="cls-3" d="M279.26,180.9v-2.62h2.44v2.62Z" transform="translate(-254.93 -159)"/><path class="cls-3" d="M279.27,182h2.43v2.65h-2.43Z" transform="translate(-254.93 -159)"/><path class="cls-3" d="M279.26,188.3v-2.64h2.44v2.64Z" transform="translate(-254.93 -159)"/><path class="cls-3" d="M275.62,184.64V182h2.45c0,.84,0,1.65,0,2.47a.3.3,0,0,1-.21.2C277.12,184.65,276.39,184.64,275.62,184.64Z" transform="translate(-254.93 -159)"/><path class="cls-3" d="M275.62,180.94v-2.67h2.45c0,.84,0,1.67,0,2.5,0,.06-.12.16-.18.16C277.14,181,276.4,180.94,275.62,180.94Z" transform="translate(-254.93 -159)"/><path class="cls-3" d="M278,188.31h-2.41v-2.65H278Z" transform="translate(-254.93 -159)"/><path class="cls-3" d="M257.3,161.53V187h5.09v-5.32H268V187H273V161.53Zm2.26,3.09h2.79v3.07h-2.79Zm2.79,4.27v3.05h-2.79v-3.05Zm-1.07,15.82h-1.72v-3.07h1.72Zm1.06-4.25h-2.77v-3.08h2.77Zm0-4.26h-2.79v-3.06h2.79Zm4.21,4.26h-2.83V178.8c0-.38,0-.77,0-1.15,0-.1.12-.27.19-.27.87,0,1.73,0,2.63,0Zm0-4.24h-1.13c-.49,0-1,0-1.45,0-.09,0-.25-.13-.25-.2,0-.94,0-1.89,0-2.87h2.84Zm-2.81-4.29v-3h2.8v3Zm2.82-4.24h-2.85c0-1,0-1.93,0-2.89,0-.06.12-.19.19-.19h2.65ZM268,177.4h2.8v3.06H268Zm2.8-5.46H268v-3.05h2.79Zm0,1.2v3.06H268v-3.06Zm0,11.57H269v-3.06h1.72Zm0-17H268v-3.05h2.8Z" transform="translate(-254.93 -159)"/></svg>